<svg width="793" height="275" viewBox="0 0 793 275" fill="none" xmlns="http://www.w3.org/2000/svg">
<rect width="793" height="275" fill="#0C0D11"/>
<path d="M362.16 139.32C361.493 139.32 360.92 139.16 360.44 138.84C359.96 138.493 359.573 137.96 359.28 137.24L353.48 122.44C353.24 121.8 353.16 121.24 353.24 120.76C353.347 120.253 353.6 119.853 354 119.56C354.4 119.267 354.933 119.12 355.6 119.12C356.187 119.12 356.667 119.267 357.04 119.56C357.413 119.827 357.733 120.347 358 121.12L362.84 134.44H361.92L366.92 120.8C367.133 120.213 367.413 119.787 367.76 119.52C368.133 119.253 368.613 119.12 369.2 119.12C369.787 119.12 370.267 119.267 370.64 119.56C371.013 119.827 371.293 120.24 371.48 120.8L376.4 134.44H375.56L380.44 121C380.707 120.28 381.04 119.787 381.44 119.52C381.867 119.253 382.333 119.12 382.84 119.12C383.48 119.12 383.973 119.28 384.32 119.6C384.667 119.92 384.867 120.333 384.92 120.84C384.973 121.32 384.88 121.853 384.64 122.44L378.88 137.24C378.613 137.933 378.227 138.453 377.72 138.8C377.24 139.147 376.667 139.32 376 139.32C375.333 139.32 374.747 139.147 374.24 138.8C373.76 138.453 373.387 137.933 373.12 137.24L367.88 123.36H370.16L365.04 137.2C364.773 137.92 364.4 138.453 363.92 138.8C363.44 139.147 362.853 139.32 362.16 139.32ZM394.382 139.28C393.582 139.28 392.968 139.04 392.542 138.56C392.115 138.08 391.902 137.413 391.902 136.56V121.88C391.902 121 392.115 120.333 392.542 119.88C392.968 119.4 393.582 119.16 394.382 119.16C395.182 119.16 395.795 119.4 396.222 119.88C396.675 120.333 396.902 121 396.902 121.88V136.56C396.902 137.413 396.688 138.08 396.262 138.56C395.835 139.04 395.208 139.28 394.382 139.28ZM394.382 115.44C393.448 115.44 392.715 115.213 392.182 114.76C391.675 114.28 391.422 113.627 391.422 112.8C391.422 111.947 391.675 111.293 392.182 110.84C392.715 110.387 393.448 110.16 394.382 110.16C395.342 110.16 396.075 110.387 396.582 110.84C397.088 111.293 397.342 111.947 397.342 112.8C397.342 113.627 397.088 114.28 396.582 114.76C396.075 115.213 395.342 115.44 394.382 115.44ZM406.497 139C405.99 139 405.564 138.88 405.217 138.64C404.897 138.373 404.684 138.04 404.577 137.64C404.47 137.24 404.47 136.813 404.577 136.36C404.71 135.88 404.964 135.427 405.337 135L415.697 122V123.2H406.257C405.644 123.2 405.164 123.04 404.817 122.72C404.497 122.373 404.337 121.907 404.337 121.32C404.337 120.707 404.497 120.24 404.817 119.92C405.164 119.6 405.644 119.44 406.257 119.44H418.097C418.684 119.44 419.164 119.573 419.537 119.84C419.91 120.08 420.15 120.4 420.257 120.8C420.39 121.2 420.404 121.627 420.297 122.08C420.19 122.533 419.95 122.96 419.577 123.36L409.017 136.56V135.24H419.017C420.297 135.24 420.937 135.867 420.937 137.12C420.937 137.707 420.764 138.173 420.417 138.52C420.097 138.84 419.63 139 419.017 139H406.497ZM436.402 139.4C434.669 139.4 433.216 139.107 432.042 138.52C430.896 137.933 430.042 137.08 429.482 135.96C428.922 134.813 428.642 133.4 428.642 131.72V123.2H426.562C425.922 123.2 425.429 123.04 425.082 122.72C424.736 122.373 424.562 121.907 424.562 121.32C424.562 120.707 424.736 120.24 425.082 119.92C425.429 119.6 425.922 119.44 426.562 119.44H428.642V115.8C428.642 114.973 428.856 114.347 429.282 113.92C429.736 113.493 430.362 113.28 431.162 113.28C431.962 113.28 432.576 113.493 433.002 113.92C433.429 114.347 433.642 114.973 433.642 115.8V119.44H437.882C438.522 119.44 439.016 119.6 439.362 119.92C439.709 120.24 439.882 120.707 439.882 121.32C439.882 121.907 439.709 122.373 439.362 122.72C439.016 123.04 438.522 123.2 437.882 123.2H433.642V131.44C433.642 132.72 433.922 133.68 434.482 134.32C435.042 134.96 435.949 135.28 437.202 135.28C437.656 135.28 438.056 135.24 438.402 135.16C438.749 135.08 439.056 135.027 439.322 135C439.642 134.973 439.909 135.08 440.122 135.32C440.336 135.533 440.442 135.987 440.442 136.68C440.442 137.213 440.349 137.693 440.162 138.12C440.002 138.52 439.696 138.8 439.242 138.96C438.896 139.067 438.442 139.16 437.882 139.24C437.322 139.347 436.829 139.4 436.402 139.4ZM451.266 146.52C450.68 146.52 450.2 146.36 449.826 146.04C449.453 145.747 449.226 145.347 449.146 144.84C449.093 144.333 449.186 143.8 449.426 143.24L452.146 137.2V139.28L444.866 122.44C444.626 121.853 444.546 121.307 444.626 120.8C444.706 120.293 444.946 119.893 445.346 119.6C445.773 119.28 446.346 119.12 447.066 119.12C447.68 119.12 448.173 119.267 448.546 119.56C448.92 119.827 449.253 120.347 449.546 121.12L454.946 134.6H453.746L459.266 121.08C459.56 120.333 459.906 119.827 460.306 119.56C460.706 119.267 461.24 119.12 461.906 119.12C462.493 119.12 462.96 119.28 463.306 119.6C463.653 119.893 463.866 120.293 463.946 120.8C464.026 121.28 463.933 121.813 463.666 122.4L453.946 144.6C453.6 145.347 453.226 145.853 452.826 146.12C452.426 146.387 451.906 146.52 451.266 146.52ZM473.041 146.52C472.241 146.52 471.628 146.307 471.201 145.88C470.774 145.453 470.561 144.827 470.561 144V121.64C470.561 120.813 470.774 120.187 471.201 119.76C471.628 119.333 472.228 119.12 473.001 119.12C473.801 119.12 474.414 119.333 474.841 119.76C475.268 120.187 475.481 120.813 475.481 121.64V124.76L475.041 123.56C475.441 122.2 476.254 121.107 477.481 120.28C478.734 119.453 480.188 119.04 481.841 119.04C483.548 119.04 485.041 119.453 486.321 120.28C487.628 121.107 488.641 122.28 489.361 123.8C490.081 125.293 490.441 127.093 490.441 129.2C490.441 131.28 490.081 133.093 489.361 134.64C488.641 136.16 487.641 137.333 486.361 138.16C485.081 138.987 483.574 139.4 481.841 139.4C480.214 139.4 478.788 139 477.561 138.2C476.334 137.373 475.508 136.307 475.081 135H475.561V144C475.561 144.827 475.334 145.453 474.881 145.88C474.454 146.307 473.841 146.52 473.041 146.52ZM480.441 135.6C481.428 135.6 482.294 135.36 483.041 134.88C483.788 134.4 484.361 133.693 484.761 132.76C485.188 131.8 485.401 130.613 485.401 129.2C485.401 127.067 484.948 125.48 484.041 124.44C483.134 123.373 481.934 122.84 480.441 122.84C479.454 122.84 478.588 123.08 477.841 123.56C477.094 124.013 476.508 124.72 476.081 125.68C475.681 126.613 475.481 127.787 475.481 129.2C475.481 131.307 475.934 132.907 476.841 134C477.748 135.067 478.948 135.6 480.441 135.6ZM507.385 139.4C505.172 139.4 503.265 138.987 501.665 138.16C500.065 137.333 498.825 136.16 497.945 134.64C497.092 133.12 496.665 131.32 496.665 129.24C496.665 127.213 497.079 125.44 497.905 123.92C498.759 122.4 499.919 121.213 501.385 120.36C502.879 119.48 504.572 119.04 506.465 119.04C507.852 119.04 509.092 119.267 510.185 119.72C511.305 120.173 512.252 120.827 513.025 121.68C513.825 122.533 514.425 123.573 514.825 124.8C515.252 126 515.465 127.36 515.465 128.88C515.465 129.36 515.292 129.733 514.945 130C514.625 130.24 514.159 130.36 513.545 130.36H500.705V127.48H511.945L511.305 128.08C511.305 126.853 511.119 125.827 510.745 125C510.399 124.173 509.879 123.547 509.185 123.12C508.519 122.667 507.679 122.44 506.665 122.44C505.545 122.44 504.585 122.707 503.785 123.24C503.012 123.747 502.412 124.48 501.985 125.44C501.585 126.373 501.385 127.493 501.385 128.8V129.08C501.385 131.267 501.892 132.907 502.905 134C503.945 135.067 505.465 135.6 507.465 135.6C508.159 135.6 508.932 135.52 509.785 135.36C510.665 135.173 511.492 134.867 512.265 134.44C512.825 134.12 513.319 133.987 513.745 134.04C514.172 134.067 514.505 134.213 514.745 134.48C515.012 134.747 515.172 135.08 515.225 135.48C515.279 135.853 515.199 136.24 514.985 136.64C514.799 137.04 514.465 137.387 513.985 137.68C513.052 138.267 511.972 138.707 510.745 139C509.545 139.267 508.425 139.4 507.385 139.4Z" fill="white"/>
<rect x="276" y="108" width="61" height="35" rx="11" stroke="#7EBAB5" stroke-width="4"/>
<path d="M294 117L294 121C294 123.209 295.791 125 298 125V125C300.209 125 302 123.209 302 121L302 117" stroke="#7EBAB5" stroke-width="4" stroke-linecap="round"/>
<path d="M286 117L286 121C286 123.209 287.791 125 290 125V125C292.209 125 294 123.209 294 121L294 117" stroke="#7EBAB5" stroke-width="4" stroke-linecap="round"/>
<rect x="308" y="114" width="5" height="5" rx="2.5" fill="#7EBAB5"/>
<rect x="324" y="131" width="5" height="5" rx="2.5" fill="#7EBAB5"/>
<path d="M319 117H328" stroke="#7EBAB5" stroke-width="4" stroke-linecap="round"/>
<path d="M297 134H311" stroke="#7EBAB5" stroke-width="4" stroke-linecap="round"/>
<path d="M319 126L319 134" stroke="#7EBAB5" stroke-width="4" stroke-linecap="round"/>
<path d="M311 126L328 126" stroke="#7EBAB5" stroke-width="4" stroke-linecap="round"/>
<path d="M285 134H290" stroke="#7EBAB5" stroke-width="4" stroke-linecap="round"/>
<path d="M200.034 174L205.474 162.1H206.715L212.155 174H210.829L205.831 162.831H206.341L201.343 174H200.034ZM202.176 170.821L202.55 169.801H209.469L209.843 170.821H202.176ZM232.19 164.99C232.915 164.99 233.544 165.132 234.077 165.415C234.621 165.687 235.04 166.106 235.335 166.673C235.641 167.24 235.794 167.954 235.794 168.815V174H234.587V168.934C234.587 167.993 234.36 167.285 233.907 166.809C233.465 166.322 232.836 166.078 232.02 166.078C231.408 166.078 230.875 166.208 230.422 166.469C229.98 166.718 229.634 167.087 229.385 167.574C229.147 168.05 229.028 168.628 229.028 169.308V174H227.821V168.934C227.821 167.993 227.594 167.285 227.141 166.809C226.687 166.322 226.053 166.078 225.237 166.078C224.636 166.078 224.109 166.208 223.656 166.469C223.202 166.718 222.851 167.087 222.602 167.574C222.364 168.05 222.245 168.628 222.245 169.308V174H221.038V165.075H222.194V167.489L222.007 167.064C222.279 166.418 222.715 165.914 223.316 165.551C223.928 165.177 224.647 164.99 225.475 164.99C226.347 164.99 227.09 165.211 227.702 165.653C228.314 166.084 228.71 166.735 228.892 167.608L228.416 167.421C228.676 166.696 229.135 166.112 229.793 165.67C230.461 165.217 231.26 164.99 232.19 164.99ZM240.427 174V165.075H241.634V174H240.427ZM241.039 163.103C240.79 163.103 240.58 163.018 240.41 162.848C240.24 162.678 240.155 162.474 240.155 162.236C240.155 161.998 240.24 161.8 240.41 161.641C240.58 161.471 240.79 161.386 241.039 161.386C241.288 161.386 241.498 161.465 241.668 161.624C241.838 161.783 241.923 161.981 241.923 162.219C241.923 162.468 241.838 162.678 241.668 162.848C241.509 163.018 241.3 163.103 241.039 163.103ZM250.908 164.99C251.634 164.99 252.268 165.132 252.812 165.415C253.368 165.687 253.798 166.106 254.104 166.673C254.422 167.24 254.58 167.954 254.58 168.815V174H253.373V168.934C253.373 167.993 253.135 167.285 252.659 166.809C252.195 166.322 251.537 166.078 250.687 166.078C250.053 166.078 249.497 166.208 249.021 166.469C248.557 166.718 248.194 167.087 247.933 167.574C247.684 168.05 247.559 168.628 247.559 169.308V174H246.352V165.075H247.508V167.523L247.321 167.064C247.605 166.418 248.058 165.914 248.681 165.551C249.305 165.177 250.047 164.99 250.908 164.99ZM259.201 174V165.075H260.408V174H259.201ZM259.813 163.103C259.563 163.103 259.354 163.018 259.184 162.848C259.014 162.678 258.929 162.474 258.929 162.236C258.929 161.998 259.014 161.8 259.184 161.641C259.354 161.471 259.563 161.386 259.813 161.386C260.062 161.386 260.272 161.465 260.442 161.624C260.612 161.783 260.697 161.981 260.697 162.219C260.697 162.468 260.612 162.678 260.442 162.848C260.283 163.018 260.073 163.103 259.813 163.103ZM276.278 164.99C277.004 164.99 277.633 165.132 278.165 165.415C278.709 165.687 279.129 166.106 279.423 166.673C279.729 167.24 279.882 167.954 279.882 168.815V174H278.675V168.934C278.675 167.993 278.449 167.285 277.995 166.809C277.553 166.322 276.924 166.078 276.108 166.078C275.496 166.078 274.964 166.208 274.51 166.469C274.068 166.718 273.723 167.087 273.473 167.574C273.235 168.05 273.116 168.628 273.116 169.308V174H271.909V168.934C271.909 167.993 271.683 167.285 271.229 166.809C270.776 166.322 270.141 166.078 269.325 166.078C268.725 166.078 268.198 166.208 267.744 166.469C267.291 166.718 266.94 167.087 266.69 167.574C266.452 168.05 266.333 168.628 266.333 169.308V174H265.126V165.075H266.282V167.489L266.095 167.064C266.367 166.418 266.804 165.914 267.404 165.551C268.016 165.177 268.736 164.99 269.563 164.99C270.436 164.99 271.178 165.211 271.79 165.653C272.402 166.084 272.799 166.735 272.98 167.608L272.504 167.421C272.765 166.696 273.224 166.112 273.881 165.67C274.55 165.217 275.349 164.99 276.278 164.99ZM290.108 174V172.028L290.057 171.705V168.407C290.057 167.648 289.842 167.064 289.411 166.656C288.992 166.248 288.363 166.044 287.524 166.044C286.946 166.044 286.397 166.14 285.875 166.333C285.354 166.526 284.912 166.781 284.549 167.098L284.005 166.197C284.459 165.812 285.003 165.517 285.637 165.313C286.272 165.098 286.941 164.99 287.643 164.99C288.799 164.99 289.689 165.279 290.312 165.857C290.947 166.424 291.264 167.291 291.264 168.458V174H290.108ZM287.031 174.085C286.363 174.085 285.779 173.977 285.28 173.762C284.793 173.535 284.419 173.229 284.158 172.844C283.898 172.447 283.767 171.994 283.767 171.484C283.767 171.019 283.875 170.6 284.09 170.226C284.317 169.841 284.68 169.535 285.178 169.308C285.688 169.07 286.368 168.951 287.218 168.951H290.295V169.852H287.252C286.391 169.852 285.79 170.005 285.45 170.311C285.122 170.617 284.957 170.997 284.957 171.45C284.957 171.96 285.156 172.368 285.552 172.674C285.949 172.98 286.504 173.133 287.218 173.133C287.898 173.133 288.482 172.98 288.969 172.674C289.468 172.357 289.831 171.903 290.057 171.314L290.329 172.147C290.103 172.736 289.706 173.207 289.139 173.558C288.584 173.909 287.881 174.085 287.031 174.085ZM295.903 174V161.386H297.11V174H295.903ZM301.097 176.482L301.845 173.337L301.981 174.068C301.721 174.068 301.5 173.983 301.318 173.813C301.148 173.643 301.063 173.422 301.063 173.15C301.063 172.878 301.148 172.657 301.318 172.487C301.5 172.317 301.715 172.232 301.964 172.232C302.225 172.232 302.435 172.323 302.593 172.504C302.763 172.685 302.848 172.901 302.848 173.15C302.848 173.241 302.843 173.331 302.831 173.422C302.82 173.513 302.797 173.615 302.763 173.728C302.729 173.841 302.684 173.977 302.627 174.136L301.913 176.482H301.097ZM314.997 174.085C314.26 174.085 313.563 173.983 312.906 173.779C312.249 173.564 311.733 173.297 311.359 172.98L311.903 172.028C312.266 172.3 312.73 172.538 313.297 172.742C313.864 172.935 314.459 173.031 315.082 173.031C315.932 173.031 316.544 172.901 316.918 172.64C317.292 172.368 317.479 172.011 317.479 171.569C317.479 171.24 317.371 170.985 317.156 170.804C316.952 170.611 316.68 170.47 316.34 170.379C316 170.277 315.62 170.192 315.201 170.124C314.782 170.056 314.362 169.977 313.943 169.886C313.535 169.795 313.161 169.665 312.821 169.495C312.481 169.314 312.203 169.07 311.988 168.764C311.784 168.458 311.682 168.05 311.682 167.54C311.682 167.053 311.818 166.616 312.09 166.231C312.362 165.846 312.759 165.545 313.28 165.33C313.813 165.103 314.459 164.99 315.218 164.99C315.796 164.99 316.374 165.069 316.952 165.228C317.53 165.375 318.006 165.574 318.38 165.823L317.853 166.792C317.456 166.52 317.031 166.327 316.578 166.214C316.125 166.089 315.671 166.027 315.218 166.027C314.413 166.027 313.818 166.169 313.433 166.452C313.059 166.724 312.872 167.075 312.872 167.506C312.872 167.846 312.974 168.112 313.178 168.305C313.393 168.498 313.671 168.651 314.011 168.764C314.362 168.866 314.742 168.951 315.15 169.019C315.569 169.087 315.983 169.172 316.391 169.274C316.81 169.365 317.19 169.495 317.53 169.665C317.881 169.824 318.159 170.056 318.363 170.362C318.578 170.657 318.686 171.048 318.686 171.535C318.686 172.056 318.539 172.51 318.244 172.895C317.961 173.269 317.541 173.564 316.986 173.779C316.442 173.983 315.779 174.085 314.997 174.085ZM325.083 174.085C324.244 174.085 323.598 173.858 323.145 173.405C322.691 172.952 322.465 172.311 322.465 171.484V163.103H323.672V171.416C323.672 171.937 323.802 172.34 324.063 172.623C324.335 172.906 324.72 173.048 325.219 173.048C325.751 173.048 326.193 172.895 326.545 172.589L326.97 173.456C326.732 173.671 326.443 173.83 326.103 173.932C325.774 174.034 325.434 174.085 325.083 174.085ZM320.867 166.078V165.075H326.392V166.078H320.867ZM336.12 174V172.028L336.069 171.705V168.407C336.069 167.648 335.854 167.064 335.423 166.656C335.004 166.248 334.375 166.044 333.536 166.044C332.958 166.044 332.408 166.14 331.887 166.333C331.366 166.526 330.924 166.781 330.561 167.098L330.017 166.197C330.47 165.812 331.014 165.517 331.649 165.313C332.284 165.098 332.952 164.99 333.655 164.99C334.811 164.99 335.701 165.279 336.324 165.857C336.959 166.424 337.276 167.291 337.276 168.458V174H336.12ZM333.043 174.085C332.374 174.085 331.791 173.977 331.292 173.762C330.805 173.535 330.431 173.229 330.17 172.844C329.909 172.447 329.779 171.994 329.779 171.484C329.779 171.019 329.887 170.6 330.102 170.226C330.329 169.841 330.691 169.535 331.19 169.308C331.7 169.07 332.38 168.951 333.23 168.951H336.307V169.852H333.264C332.403 169.852 331.802 170.005 331.462 170.311C331.133 170.617 330.969 170.997 330.969 171.45C330.969 171.96 331.167 172.368 331.564 172.674C331.961 172.98 332.516 173.133 333.23 173.133C333.91 173.133 334.494 172.98 334.981 172.674C335.48 172.357 335.842 171.903 336.069 171.314L336.341 172.147C336.114 172.736 335.718 173.207 335.151 173.558C334.596 173.909 333.893 174.085 333.043 174.085ZM344.736 174.085C343.898 174.085 343.252 173.858 342.798 173.405C342.345 172.952 342.118 172.311 342.118 171.484V163.103H343.325V171.416C343.325 171.937 343.456 172.34 343.716 172.623C343.988 172.906 344.374 173.048 344.872 173.048C345.405 173.048 345.847 172.895 346.198 172.589L346.623 173.456C346.385 173.671 346.096 173.83 345.756 173.932C345.428 174.034 345.088 174.085 344.736 174.085ZM340.52 166.078V165.075H346.045V166.078H340.52ZM350.181 174V165.075H351.388V174H350.181ZM350.793 163.103C350.543 163.103 350.334 163.018 350.164 162.848C349.994 162.678 349.909 162.474 349.909 162.236C349.909 161.998 349.994 161.8 350.164 161.641C350.334 161.471 350.543 161.386 350.793 161.386C351.042 161.386 351.252 161.465 351.422 161.624C351.592 161.783 351.677 161.981 351.677 162.219C351.677 162.468 351.592 162.678 351.422 162.848C351.263 163.018 351.053 163.103 350.793 163.103ZM359.812 174.085C358.928 174.085 358.135 173.892 357.432 173.507C356.741 173.11 356.197 172.572 355.8 171.892C355.403 171.201 355.205 170.413 355.205 169.529C355.205 168.634 355.403 167.846 355.8 167.166C356.197 166.486 356.741 165.953 357.432 165.568C358.135 165.183 358.928 164.99 359.812 164.99C360.571 164.99 361.257 165.137 361.869 165.432C362.481 165.727 362.963 166.169 363.314 166.758L362.413 167.37C362.107 166.917 361.727 166.582 361.274 166.367C360.821 166.152 360.328 166.044 359.795 166.044C359.16 166.044 358.588 166.191 358.078 166.486C357.568 166.769 357.166 167.172 356.871 167.693C356.576 168.214 356.429 168.826 356.429 169.529C356.429 170.232 356.576 170.844 356.871 171.365C357.166 171.886 357.568 172.294 358.078 172.589C358.588 172.872 359.16 173.014 359.795 173.014C360.328 173.014 360.821 172.906 361.274 172.691C361.727 172.476 362.107 172.147 362.413 171.705L363.314 172.317C362.963 172.895 362.481 173.337 361.869 173.643C361.257 173.938 360.571 174.085 359.812 174.085ZM381.486 174.085C380.647 174.085 380.001 173.858 379.548 173.405C379.094 172.952 378.868 172.311 378.868 171.484V163.103H380.075V171.416C380.075 171.937 380.205 172.34 380.466 172.623C380.738 172.906 381.123 173.048 381.622 173.048C382.154 173.048 382.596 172.895 382.948 172.589L383.373 173.456C383.135 173.671 382.846 173.83 382.506 173.932C382.177 174.034 381.837 174.085 381.486 174.085ZM377.27 166.078V165.075H382.795V166.078H377.27ZM386.832 177.383C386.413 177.383 386.01 177.315 385.625 177.179C385.251 177.043 384.928 176.839 384.656 176.567L385.217 175.666C385.444 175.881 385.687 176.046 385.948 176.159C386.22 176.284 386.52 176.346 386.849 176.346C387.246 176.346 387.586 176.233 387.869 176.006C388.164 175.791 388.441 175.405 388.702 174.85L389.28 173.541L389.416 173.354L393.088 165.075H394.278L389.807 175.071C389.558 175.649 389.28 176.108 388.974 176.448C388.679 176.788 388.356 177.026 388.005 177.162C387.654 177.309 387.263 177.383 386.832 177.383ZM389.212 174.255L385.098 165.075H386.356L389.994 173.269L389.212 174.255ZM401.945 174.085C401.174 174.085 400.477 173.909 399.854 173.558C399.23 173.195 398.732 172.68 398.358 172.011C397.995 171.331 397.814 170.504 397.814 169.529C397.814 168.554 397.995 167.733 398.358 167.064C398.72 166.384 399.213 165.868 399.837 165.517C400.46 165.166 401.163 164.99 401.945 164.99C402.795 164.99 403.554 165.183 404.223 165.568C404.903 165.942 405.435 166.475 405.821 167.166C406.206 167.846 406.399 168.634 406.399 169.529C406.399 170.436 406.206 171.229 405.821 171.909C405.435 172.589 404.903 173.122 404.223 173.507C403.554 173.892 402.795 174.085 401.945 174.085ZM397.338 177.298V165.075H398.494V167.761L398.375 169.546L398.545 171.348V177.298H397.338ZM401.86 173.014C402.494 173.014 403.061 172.872 403.56 172.589C404.058 172.294 404.455 171.886 404.75 171.365C405.044 170.832 405.192 170.22 405.192 169.529C405.192 168.838 405.044 168.231 404.75 167.71C404.455 167.189 404.058 166.781 403.56 166.486C403.061 166.191 402.494 166.044 401.86 166.044C401.225 166.044 400.653 166.191 400.143 166.486C399.644 166.781 399.247 167.189 398.953 167.71C398.669 168.231 398.528 168.838 398.528 169.529C398.528 170.22 398.669 170.832 398.953 171.365C399.247 171.886 399.644 172.294 400.143 172.589C400.653 172.872 401.225 173.014 401.86 173.014ZM410.219 174V165.075H411.426V174H410.219ZM410.831 163.103C410.582 163.103 410.372 163.018 410.202 162.848C410.032 162.678 409.947 162.474 409.947 162.236C409.947 161.998 410.032 161.8 410.202 161.641C410.372 161.471 410.582 161.386 410.831 161.386C411.081 161.386 411.29 161.465 411.46 161.624C411.63 161.783 411.715 161.981 411.715 162.219C411.715 162.468 411.63 162.678 411.46 162.848C411.302 163.018 411.092 163.103 410.831 163.103ZM420.701 164.99C421.426 164.99 422.061 165.132 422.605 165.415C423.16 165.687 423.591 166.106 423.897 166.673C424.214 167.24 424.373 167.954 424.373 168.815V174H423.166V168.934C423.166 167.993 422.928 167.285 422.452 166.809C421.987 166.322 421.33 166.078 420.48 166.078C419.845 166.078 419.29 166.208 418.814 166.469C418.349 166.718 417.986 167.087 417.726 167.574C417.476 168.05 417.352 168.628 417.352 169.308V174H416.145V165.075H417.301V167.523L417.114 167.064C417.397 166.418 417.85 165.914 418.474 165.551C419.097 165.177 419.839 164.99 420.701 164.99ZM432.801 177.383C431.985 177.383 431.203 177.264 430.455 177.026C429.707 176.788 429.101 176.448 428.636 176.006L429.248 175.088C429.667 175.462 430.183 175.757 430.795 175.972C431.418 176.199 432.076 176.312 432.767 176.312C433.9 176.312 434.733 176.046 435.266 175.513C435.799 174.992 436.065 174.176 436.065 173.065V170.838L436.235 169.308L436.116 167.778V165.075H437.272V172.912C437.272 174.453 436.892 175.581 436.133 176.295C435.385 177.02 434.274 177.383 432.801 177.383ZM432.58 173.66C431.73 173.66 430.965 173.479 430.285 173.116C429.605 172.742 429.067 172.226 428.67 171.569C428.285 170.912 428.092 170.158 428.092 169.308C428.092 168.458 428.285 167.71 428.67 167.064C429.067 166.407 429.605 165.897 430.285 165.534C430.965 165.171 431.73 164.99 432.58 164.99C433.373 164.99 434.087 165.154 434.722 165.483C435.357 165.812 435.861 166.299 436.235 166.945C436.609 167.591 436.796 168.379 436.796 169.308C436.796 170.237 436.609 171.025 436.235 171.671C435.861 172.317 435.357 172.81 434.722 173.15C434.087 173.49 433.373 173.66 432.58 173.66ZM432.699 172.589C433.356 172.589 433.94 172.453 434.45 172.181C434.96 171.898 435.362 171.512 435.657 171.025C435.952 170.526 436.099 169.954 436.099 169.308C436.099 168.662 435.952 168.095 435.657 167.608C435.362 167.121 434.96 166.741 434.45 166.469C433.94 166.186 433.356 166.044 432.699 166.044C432.053 166.044 431.469 166.186 430.948 166.469C430.438 166.741 430.036 167.121 429.741 167.608C429.458 168.095 429.316 168.662 429.316 169.308C429.316 169.954 429.458 170.526 429.741 171.025C430.036 171.512 430.438 171.898 430.948 172.181C431.469 172.453 432.053 172.589 432.699 172.589ZM450.622 174.085C449.783 174.085 449.137 173.858 448.684 173.405C448.231 172.952 448.004 172.311 448.004 171.484V163.103H449.211V171.416C449.211 171.937 449.341 172.34 449.602 172.623C449.874 172.906 450.259 173.048 450.758 173.048C451.291 173.048 451.733 172.895 452.084 172.589L452.509 173.456C452.271 173.671 451.982 173.83 451.642 173.932C451.313 174.034 450.973 174.085 450.622 174.085ZM446.406 166.078V165.075H451.931V166.078H446.406ZM459.542 174.085C458.612 174.085 457.796 173.892 457.094 173.507C456.391 173.11 455.841 172.572 455.445 171.892C455.048 171.201 454.85 170.413 454.85 169.529C454.85 168.645 455.037 167.863 455.411 167.183C455.796 166.503 456.317 165.97 456.975 165.585C457.643 165.188 458.391 164.99 459.219 164.99C460.057 164.99 460.8 165.183 461.446 165.568C462.103 165.942 462.619 166.475 462.993 167.166C463.367 167.846 463.554 168.634 463.554 169.529C463.554 169.586 463.548 169.648 463.537 169.716C463.537 169.773 463.537 169.835 463.537 169.903H455.768V169.002H462.891L462.415 169.359C462.415 168.713 462.273 168.141 461.99 167.642C461.718 167.132 461.344 166.735 460.868 166.452C460.392 166.169 459.842 166.027 459.219 166.027C458.607 166.027 458.057 166.169 457.57 166.452C457.082 166.735 456.703 167.132 456.431 167.642C456.159 168.152 456.023 168.736 456.023 169.393V169.58C456.023 170.26 456.17 170.861 456.465 171.382C456.771 171.892 457.19 172.294 457.723 172.589C458.267 172.872 458.884 173.014 459.576 173.014C460.12 173.014 460.624 172.918 461.089 172.725C461.565 172.532 461.973 172.238 462.313 171.841L462.993 172.623C462.596 173.099 462.097 173.462 461.497 173.711C460.907 173.96 460.256 174.085 459.542 174.085ZM469.767 174.085C469.031 174.085 468.334 173.983 467.676 173.779C467.019 173.564 466.503 173.297 466.129 172.98L466.673 172.028C467.036 172.3 467.501 172.538 468.067 172.742C468.634 172.935 469.229 173.031 469.852 173.031C470.702 173.031 471.314 172.901 471.688 172.64C472.062 172.368 472.249 172.011 472.249 171.569C472.249 171.24 472.142 170.985 471.926 170.804C471.722 170.611 471.45 170.47 471.11 170.379C470.77 170.277 470.391 170.192 469.971 170.124C469.552 170.056 469.133 169.977 468.713 169.886C468.305 169.795 467.931 169.665 467.591 169.495C467.251 169.314 466.974 169.07 466.758 168.764C466.554 168.458 466.452 168.05 466.452 167.54C466.452 167.053 466.588 166.616 466.86 166.231C467.132 165.846 467.529 165.545 468.05 165.33C468.583 165.103 469.229 164.99 469.988 164.99C470.566 164.99 471.144 165.069 471.722 165.228C472.3 165.375 472.776 165.574 473.15 165.823L472.623 166.792C472.227 166.52 471.802 166.327 471.348 166.214C470.895 166.089 470.442 166.027 469.988 166.027C469.184 166.027 468.589 166.169 468.203 166.452C467.829 166.724 467.642 167.075 467.642 167.506C467.642 167.846 467.744 168.112 467.948 168.305C468.164 168.498 468.441 168.651 468.781 168.764C469.133 168.866 469.512 168.951 469.92 169.019C470.34 169.087 470.753 169.172 471.161 169.274C471.581 169.365 471.96 169.495 472.3 169.665C472.652 169.824 472.929 170.056 473.133 170.362C473.349 170.657 473.456 171.048 473.456 171.535C473.456 172.056 473.309 172.51 473.014 172.895C472.731 173.269 472.312 173.564 471.756 173.779C471.212 173.983 470.549 174.085 469.767 174.085ZM479.853 174.085C479.015 174.085 478.369 173.858 477.915 173.405C477.462 172.952 477.235 172.311 477.235 171.484V163.103H478.442V171.416C478.442 171.937 478.573 172.34 478.833 172.623C479.105 172.906 479.491 173.048 479.989 173.048C480.522 173.048 480.964 172.895 481.315 172.589L481.74 173.456C481.502 173.671 481.213 173.83 480.873 173.932C480.545 174.034 480.205 174.085 479.853 174.085ZM475.637 166.078V165.075H481.162V166.078H475.637ZM493.929 174.085C493.09 174.085 492.444 173.858 491.991 173.405C491.537 172.952 491.311 172.311 491.311 171.484V163.103H492.518V171.416C492.518 171.937 492.648 172.34 492.909 172.623C493.181 172.906 493.566 173.048 494.065 173.048C494.597 173.048 495.039 172.895 495.391 172.589L495.816 173.456C495.578 173.671 495.289 173.83 494.949 173.932C494.62 174.034 494.28 174.085 493.929 174.085ZM489.713 166.078V165.075H495.238V166.078H489.713ZM503.929 164.99C504.654 164.99 505.289 165.132 505.833 165.415C506.388 165.687 506.819 166.106 507.125 166.673C507.442 167.24 507.601 167.954 507.601 168.815V174H506.394V168.934C506.394 167.993 506.156 167.285 505.68 166.809C505.215 166.322 504.558 166.078 503.708 166.078C503.073 166.078 502.518 166.208 502.042 166.469C501.577 166.718 501.215 167.087 500.954 167.574C500.705 168.05 500.58 168.628 500.58 169.308V174H499.373V161.386H500.58V167.523L500.342 167.064C500.625 166.418 501.079 165.914 501.702 165.551C502.325 165.177 503.068 164.99 503.929 164.99ZM517.814 174V172.028L517.763 171.705V168.407C517.763 167.648 517.548 167.064 517.117 166.656C516.698 166.248 516.069 166.044 515.23 166.044C514.652 166.044 514.103 166.14 513.581 166.333C513.06 166.526 512.618 166.781 512.255 167.098L511.711 166.197C512.165 165.812 512.709 165.517 513.343 165.313C513.978 165.098 514.647 164.99 515.349 164.99C516.505 164.99 517.395 165.279 518.018 165.857C518.653 166.424 518.97 167.291 518.97 168.458V174H517.814ZM514.737 174.085C514.069 174.085 513.485 173.977 512.986 173.762C512.499 173.535 512.125 173.229 511.864 172.844C511.604 172.447 511.473 171.994 511.473 171.484C511.473 171.019 511.581 170.6 511.796 170.226C512.023 169.841 512.386 169.535 512.884 169.308C513.394 169.07 514.074 168.951 514.924 168.951H518.001V169.852H514.958C514.097 169.852 513.496 170.005 513.156 170.311C512.828 170.617 512.663 170.997 512.663 171.45C512.663 171.96 512.862 172.368 513.258 172.674C513.655 172.98 514.21 173.133 514.924 173.133C515.604 173.133 516.188 172.98 516.675 172.674C517.174 172.357 517.537 171.903 517.763 171.314L518.035 172.147C517.809 172.736 517.412 173.207 516.845 173.558C516.29 173.909 515.587 174.085 514.737 174.085ZM526.431 174.085C525.592 174.085 524.946 173.858 524.493 173.405C524.039 172.952 523.813 172.311 523.813 171.484V163.103H525.02V171.416C525.02 171.937 525.15 172.34 525.411 172.623C525.683 172.906 526.068 173.048 526.567 173.048C527.099 173.048 527.541 172.895 527.893 172.589L528.318 173.456C528.08 173.671 527.791 173.83 527.451 173.932C527.122 174.034 526.782 174.085 526.431 174.085ZM522.215 166.078V165.075H527.74V166.078H522.215ZM539.503 174L536.137 165.075H537.293L540.353 173.354H539.826L542.971 165.075H544.008L547.119 173.354H546.592L549.703 165.075H550.808L547.425 174H546.286L543.294 166.214H543.651L540.642 174H539.503ZM557.374 174.085C556.513 174.085 555.737 173.892 555.045 173.507C554.365 173.11 553.827 172.572 553.43 171.892C553.034 171.201 552.835 170.413 552.835 169.529C552.835 168.634 553.034 167.846 553.43 167.166C553.827 166.486 554.365 165.953 555.045 165.568C555.725 165.183 556.502 164.99 557.374 164.99C558.258 164.99 559.04 165.183 559.72 165.568C560.412 165.953 560.95 166.486 561.335 167.166C561.732 167.846 561.93 168.634 561.93 169.529C561.93 170.413 561.732 171.201 561.335 171.892C560.95 172.572 560.412 173.11 559.72 173.507C559.029 173.892 558.247 174.085 557.374 174.085ZM557.374 173.014C558.02 173.014 558.593 172.872 559.091 172.589C559.59 172.294 559.981 171.886 560.264 171.365C560.559 170.832 560.706 170.22 560.706 169.529C560.706 168.826 560.559 168.214 560.264 167.693C559.981 167.172 559.59 166.769 559.091 166.486C558.593 166.191 558.026 166.044 557.391 166.044C556.757 166.044 556.19 166.191 555.691 166.486C555.193 166.769 554.796 167.172 554.501 167.693C554.207 168.214 554.059 168.826 554.059 169.529C554.059 170.22 554.207 170.832 554.501 171.365C554.796 171.886 555.193 172.294 555.691 172.589C556.19 172.872 556.751 173.014 557.374 173.014ZM565.755 174V165.075H566.911V167.506L566.792 167.081C567.041 166.401 567.46 165.885 568.05 165.534C568.639 165.171 569.37 164.99 570.243 164.99V166.163C570.197 166.163 570.152 166.163 570.107 166.163C570.061 166.152 570.016 166.146 569.971 166.146C569.03 166.146 568.293 166.435 567.761 167.013C567.228 167.58 566.962 168.39 566.962 169.444V174H565.755ZM574.757 171.688L574.791 170.141L580.35 165.075H581.829L577.902 168.832L577.222 169.41L574.757 171.688ZM573.805 174V161.386H575.012V174H573.805ZM580.724 174L577.001 169.359L577.783 168.424L582.203 174H580.724ZM587.506 174.085C586.77 174.085 586.073 173.983 585.415 173.779C584.758 173.564 584.242 173.297 583.868 172.98L584.412 172.028C584.775 172.3 585.24 172.538 585.806 172.742C586.373 172.935 586.968 173.031 587.591 173.031C588.441 173.031 589.053 172.901 589.427 172.64C589.801 172.368 589.988 172.011 589.988 171.569C589.988 171.24 589.881 170.985 589.665 170.804C589.461 170.611 589.189 170.47 588.849 170.379C588.509 170.277 588.13 170.192 587.71 170.124C587.291 170.056 586.872 169.977 586.452 169.886C586.044 169.795 585.67 169.665 585.33 169.495C584.99 169.314 584.713 169.07 584.497 168.764C584.293 168.458 584.191 168.05 584.191 167.54C584.191 167.053 584.327 166.616 584.599 166.231C584.871 165.846 585.268 165.545 585.789 165.33C586.322 165.103 586.968 164.99 587.727 164.99C588.305 164.99 588.883 165.069 589.461 165.228C590.039 165.375 590.515 165.574 590.889 165.823L590.362 166.792C589.966 166.52 589.541 166.327 589.087 166.214C588.634 166.089 588.181 166.027 587.727 166.027C586.923 166.027 586.328 166.169 585.942 166.452C585.568 166.724 585.381 167.075 585.381 167.506C585.381 167.846 585.483 168.112 585.687 168.305C585.903 168.498 586.18 168.651 586.52 168.764C586.872 168.866 587.251 168.951 587.659 169.019C588.079 169.087 588.492 169.172 588.9 169.274C589.32 169.365 589.699 169.495 590.039 169.665C590.391 169.824 590.668 170.056 590.872 170.362C591.088 170.657 591.195 171.048 591.195 171.535C591.195 172.056 591.048 172.51 590.753 172.895C590.47 173.269 590.051 173.564 589.495 173.779C588.951 173.983 588.288 174.085 587.506 174.085Z" fill="#4B4D50"/>
</svg>
